<svg height="512" viewBox="0 0 60 56" width="512" xmlns="http://www.w3.org/2000/svg"><g id="031---Edit-Recording" fill="none"><g id="Icons" transform="translate(3)"><path id="Shape" d="m55.76 6.37-1.37 3.76-1.39 3.82v.01l-.32.87-1.15 3.17-.53 1.45-6.87 18.87-3.2 3.32-2.08 2.15c-.2742945.2791448-.6862174.3726287-1.0541364.2392312-.3679191-.1333976-.6242096-.4691577-.6558636-.8592312l-.11-1.58-.09-1.28-.33-4.73 5.39-14.81 1.01-2.77 1.82-5 .33-.91 1.71-4.7 1.37-3.76c.5430451-1.46543677 1.8829417-2.4859394 3.44-2.62.11-.01.22-.01.33-.01.4637074.00180532.9236838.08297763 1.36.24 2.0720899.76153152 3.1399822 3.05370193 2.39 5.13z" fill="#bb193b"/><path id="Shape" d="m55.76 6.37c-4.068 11.164 4.848-13.31-11.63 31.95-3.858 4-2.659 2.761-5.28 5.47-.2742945.2791448-.6862174.3726287-1.0541364.2392312-.3679191-.1333976-.6242096-.4691577-.6558636-.8592312-.219-3.152-.005-.071-.53-7.59.435-1.2 10.762-29.567 11.63-31.95.4894538-1.34331864 1.6583798-2.32347573 3.0664548-2.57125557s2.8413789.27446121 3.76 1.37000001c.9186212 1.0955388 1.1829991 2.59793694.6935452 3.94125556z" fill="#ef314c"/><path id="Shape" d="m51 19.45v30.55h-51v-32h43.01c-2.181 5.982-6.058 16.647-6.4 17.58l7.52 2.74c4.207-11.556 2.688-7.382 6.87-18.87z" fill="#fec108"/><path id="Shape" d="m48 27.69v22.31h-48v-32h43.01c-2.181 5.982-6.058 16.647-6.4 17.58l7.52 2.74z" fill="#ffdc00"/><path id="Shape" d="m52.68 14.83c-1.32 3.639.039-.1-8.55 23.49l-7.52-2.74 8.55-23.49c2.253.82 5.05 1.837 7.52 2.74z" fill="#f44335"/><path id="Shape" d="m54.39 10.13-1.39 3.82v.01l-.32.87-2.91-1.06h-.01l-.84-.31-.92-.34-.34-.12-2.5-.91 1.47-4.03.24-.67z" fill="#9e9e9e"/><path id="Shape" d="m44.13 38.32-3.2 3.32-2.08 2.15c-.2742945.2791448-.6862174.3726287-1.0541364.2392312-.3679191-.1333976-.6242096-.4691577-.6558636-.8592312l-.09-1.33-.11-1.53-.29-4.15-.04-.58 3.76 1.37z" fill="#ffe0b2"/><path id="Shape" d="m40.37 36.95-3.76-1.37.04.58.038.541.682.249 3.76 1.37-3.2 3.32-.83.86.045.667c.031654.3900735.2879445.7258336.6558636.8592312.367919.1333975.7798419.0399136 1.0541364-.2392312l2.08-2.15 3.2-3.32z" fill="#dfc49c"/><path id="Shape" d="m22 43c0 1.2133867-.7309265 2.3072956-1.8519497 2.7716386s-2.4113767.2076757-3.2693706-.6503183c-.857994-.8579939-1.1146613-2.1483474-.6503183-3.2693706s1.5582519-1.8519497 2.7716386-1.8519497c1.6568542 0 3 1.3431458 3 3z" fill="#f57c00"/><path id="Shape" d="m19 43c.0006876 1.072484-.5712013 2.0637581-1.5 2.6-.9300833-.5353928-1.503337-1.526827-1.503337-2.6s.5732537-2.0646072 1.503337-2.6c.9287987.5362419 1.5006876 1.527516 1.5 2.6z" fill="#ff9801"/><path id="Shape" d="m30.45 31.48-7 4.4c-.3241809.1651675-.7124892.1412312-1.0139301-.0625013-.301441-.2037325-.4684441-.5551101-.4360699-.9174987v-8.8c-.0323742-.3623886.1346289-.7137662.4360699-.9174987.3014409-.2037325.6897492-.2276688 1.0139301-.0625013l6.37 4 .63.4c.3401659.209534.5473436.5804786.5473436.98s-.2071777.770466-.5473436.98z" fill="#d84315"/><path id="Shape" d="m29.82 29.12c-.0863138.1529563-.2147368.2779084-.37.36l-7 4.4c-.1377041.076757-.2923611.1179988-.45.12v-7.9c-.0323742-.3623886.1346289-.7137662.4360699-.9174987.3014409-.2037325.6897492-.2276688 1.0139301-.0625013z" fill="#ff5722"/><path id="Shape" d="m55.76 6.37c-.43 1.19-.89 2.45-1.37 3.76l-2.65-.97c.43-1.17.78-2.12 1.02-2.79.7254646-2.0225057-.2708345-4.25756609-2.26-5.07 1.4635875-.59150482 3.1381715-.26690371 4.2747464.82861619s1.5225369 2.75703448.9852536 4.24138381z" fill="#bb193b"/><path id="Shape" d="m52.68 14.83c-2.675 7.376-8 22-8.55 23.49-1.28-.47-2.08-.76-2.65-.96 2.22-6.09 5.92-16.24 8.55-23.49z" fill="#c81e1e"/><path id="Shape" d="m54.39 10.13c-.183.506-1.525 4.2-1.71 4.7l-2.65-.97c.65-1.78 1.23-3.38 1.71-4.7z" fill="#707070"/></g><g id="Layer_10" fill="#000" transform="translate(0 -1)"><path id="Shape" d="m2 57h53c1.1045695 0 2-.8954305 2-2v-4c0-.5522847-.4477153-1-1-1h-1v-29.378l4.7-12.911c.9444069-2.59573832-.3942617-5.46559308-2.99-6.41-2.5957383-.94440692-5.4655931.39426168-6.41 2.99l-3.171 8.709h-45.129c-1.1045695 0-2 .8954305-2 2v4c0 .5522847.44771525 1 1 1h1v30h-1c-.55228475 0-1 .4477153-1 1v4c0 1.1045695.8954305 2 2 2zm5-5h3v3h-3zm37-32v1.6c-5.706 15.678-5.4 14.745-5.386 15.044-.006.1-.01-.111.68 9.837.027128.3944945.2841692.7359548.6557691.871141.3716.1351863.7879616.0387066 1.0622309-.246141l2.988-3.106v6h-31v-30zm1.341 19.732-4.207 4.362-.419-6.047zm1.191-1.694-1.88-.685 4.448-12.216c.130357-.3375931.0681497-.7192734-.1626574-.998003-.230807-.2787295-.5941954-.4110114-.9501739-.3458855-.3559785.0651258-.6489952.3174963-.7661687.6598885l-4.448 12.215-1.88-.685 7.865-21.611 1.881.685-2.052 5.637c-.130357.3375931-.0681497.7192734.1626574.998003.230807.2787295.5941954.4110114.9501739.3458855.3559785-.0651258.6489952-.3174963.7661687-.6598885l2.052-5.636 1.88.685zm8.551-23.49-5.641-2.055 1.027-2.82 5.639 2.054zm-43.083 37.452h3v3h-3zm5 0h3v3h-3zm5 0h3v3h-3zm5 0h3v3h-3zm5 0h3v3h-3zm5 0h3v3h-3zm5 0h3v3h-3zm5 0h3v3h-3zm8 3h-3v-3h3zm-2-5h-7v-8.069c2.075-2.151 1.953-2.006 2.046-2.232.118-.286-.365 1.029 4.954-13.583zm-.82-45.025c.575723-1.54373378 2.288678-2.33428671 3.836917-1.77079142s2.3523153 2.27014404 1.801083 3.82279142l-1.026 2.82-5.639-2.054zm-7.18 13.025h-3v-3h3zm-5 0h-3v-3h3zm-5 0h-3v-3h3zm-5 0h-3v-3h3zm-5 0h-3v-3h3zm-5 0h-3v-3h3zm-5 0h-3v-3h3zm-5 0h-3v-3h3zm-8-3h3v3h-3zm2 5h7v30h-7zm-2 32h3v3h-3z"/><path id="Shape" d="m16 45h2.142c.4490235 1.7642024 2.0375517 2.9990647 3.858 2.9990647s3.4089765-1.2348623 3.858-2.9990647h10.142c.5522847 0 1-.4477153 1-1s-.4477153-1-1-1h-10.142c-.4490235-1.7642024-2.0375517-2.9990647-3.858-2.9990647s-3.4089765 1.2348623-3.858 2.9990647h-2.142c-.5522847 0-1 .4477153-1 1s.4477153 1 1 1zm6-3c1.1045695 0 2 .8954305 2 2s-.8954305 2-2 2-2-.8954305-2-2 .8954305-2 2-2z"/><path id="Shape" d="m26.979 37.729 6.95-4.369c.6532231-.3804012 1.0591013-1.0755086 1.0693404-1.8313529.010239-.7558443-.3766613-1.461691-1.0193404-1.8596471l-7.05-4.428c-.6342706-.3300936-1.3963325-.2974278-2.0000296.0857313-.603697.383159-.9576583 1.0588193-.9289704 1.7732687v8.8c-.0312294.7253074.3330318 1.4105836.9517101 1.7904301.6186783.3798464 1.3946111.3946088 2.0272899.0385699zm-.979-10.629c0-.121-.834-.334 6.965 4.29.0264957.0301816.0391833.0700569.035.11.00121.0584461-.0320963.1121281-.085.137-7.476 4.502-6.915 4.392-6.915 4.263z"/></g></g></svg>