<svg clip-rule="evenodd" fill-rule="evenodd" height="1.707in" image-rendering="optimizeQuality" shape-rendering="geometricPrecision" text-rendering="geometricPrecision" viewBox="0 0 1.70666 1.70666" width="1.707in" xmlns="http://www.w3.org/2000/svg"><g id="Layer_x0020_1"><g fill="#ffba00"><path d="m.25472.674402h.258091v-.060512h-.182563-.075528z"/><path d="m.512811.714402h-.258091v.037696h.258091z"/><path d="m.512811 1.24159h-.258091v.03769h.258091z"/><path d="m.512811 1.31928h-.258091v.0605h.258091z" stroke="#8892a0" stroke-width=".003"/><path d="m.552811 1.31664v.0631378h.913622c.0214173 0 .0388346-.0174173.0388346-.0388346v-.0243031h-.952457z"/><path d="m1.08975 1.4198h-.419539c0 .0383386-.00746457.0775433.0161378.0775433h.106252.174764.107551c.0221732 0 .0148346-.0391417.0148346-.0775433z"/><path d="m.94735 1.53735h-.134752v.15597h.134752z"/><path d="m.75385.996846c0 .120874.0983465.219205.21922.219205.120878 0 .219205-.0983346.219205-.219205.00000787-.120894-.0983268-.21922-.219205-.21922-.120874 0-.21922.0983425-.21922.21922zm.21922.163035c-.0898976 0-.163028-.0731535-.163028-.163035 0-.0898858.0731378-.163039.163028-.163039.0898898 0 .163039.0731378.163039.163039 0 .0898976-.0731339.163035-.163039.163035z"/><path d="m.850043.996839c0 .0678425.0551969.123028.123028.123028.0678307 0 .123028-.0551929.123028-.123028 0-.0678307-.0551811-.123035-.123028-.123035-.0678465 0-.123028.0551969-.123028.123035zm.0822165 0c-.00000787.0110472-.00897638.0200157-.0200157.0200157-.0429724 0-.0150315-.100831.0608307-.100831.0263307 0 .0263228.0399961 0 .0399961-.0225118 0-.040815.0183071-.040815.0408189z"/><path d="m1.29597.859858h.13165v-.056775l-.13165-.000004z"/><path d="m.552811.677055h.952449v-.0249055c0-.0210945-.0171535-.0382598-.0382598-.0382598h-.0422638-.170039-.451315-.170055-.0805157v.0631654z"/><path d="m.503299.57389c0-.0188425.00367717-.0484291-.00477559-.0484291h-.143236c-.00879921 0-.00503937.0290433-.00503937.0484291h.153051z"/><path d="m.65924.780606c-.035311 0-.0353268.0536772 0 .0536772.0353228 0 .0353071-.0536772 0-.0536772z"/><path d="m.983736.258059c.0320748.00902362.0744094.0058622.104854.0011811.0148504-.00242913.026185-.00518898.0330079-.00657874l.00090551-.00024016c.00233858-.0006378.0046811-.00081496.00693701-.00061024.00800787.00047638.0125551.00413386.0150748.00923622.00228346.00356693.00348031.00792126.00302756.012626l-.00011811.00129528c.00027559.00742913-.00067717.0149488-.00047638.019689.050315-.105575-.073752-.245256-.213472-.107685-.0133819.0131772-.0705709-.00722835-.0210118.0971772.00169291-.0125787.00143307-.023315.00262205-.0317677l.00001575-.0005c.00011417-.00469685.00171654-.00872835.00423622-.0118898.00198031-.00275591.00477953-.00490551.00880315-.00639764.00647638-.00240551.0107205-.00188976.0146772.00027165.00257874.00107874.00501181.00275984.00712992.00511417l.00088976.00093701c.00659449.00562598.0154252.0130591.0328976.0181417z"/><path d="m1.10697.296673c-.0467835.00858268-.110055.0131417-.154713-.00774016-.00159843.012-.00480709.0329291-.0121496.0479882.0108976.0273504.0296535.0537835.0521654.0685039.00759843.00320866.0158228.00837008.0258976.0109016.00357874.00068504.00719685.00105118.0108543.00105118.0368465 0 .0693465-.0367283.0859606-.0734252-.00430709-.0109331-.00675984-.0257165-.00775197-.0424921l-.00026378-.0047874z"/><path d="m1.0563.453626c-.00866142.0024252-.0177559.00376378-.0272677.00376378-.00434646 0-.00862598-.00030315-.0128346-.00086614l-.00085039-.00011417-.00139764-.00020866-.00030709-.00004724-.00085433-.00014173-.00085039-.00014567-.00008268-.00001181-.00024016-.00004724-.00222835-.00042913-.0003189-.00006299-.00011024-.00002362c-.00240551-.0005-.00479134-.00109055-.00717323-.00177559 0 .029122-.00094095.0367008-.0256299.0382598.0287874.0207677.0769409.0207795.105744-.00000394-.024626-.00155906-.0255945-.00912205-.0255984-.0381457z"/><path d="m1.134142.4916065c-.018878.0333898-.060622.056437-.105114.056437-.0502244 0-.0904724-.0297953-.105654-.0564449-.0073937-.00009449-.0154724-.00016535-.0243268-.00016535-.044311 0-.0756535.0337008-.0756535.0824567h.411287c0-.0487441-.0313228-.0824567-.0756535-.0824567-.00907874 0-.0173425.0000748-.0248858.00017323z"/><path d="m1.15904.451433c.0637795 0 .115669.051874.115669.115654 0 .0021378.00006299.00442913.0001378.00680315h.12987v-.50722h-.751394v.50722h.129917c.0000748-.00237402.0001378-.00466535.0001378-.00680315 0-.0637795.051874-.115654.115654-.115654h.0373898.00048819.0248543c0-.0067126-.00040551-.0132008-.00044488-.0191614-.0283819-.0221654-.0499055-.0559331-.0613819-.0885827-.0113307-.0175433-.064248-.104157-.0397913-.155535.00629134-.0132323.0200827-.0294409.0502087-.0344134.0445551-.0420551.0927244-.0642362.139638-.0642362.128646 0 .199744.161382.103957.265126-.0116181.0279803-.0312874.058063-.0576417.0783976v.0184055h.0627323zm.165693-.232984c-.027378 0-.02-.038752-.02-.0733898-.0346378 0-.0733898.00738189-.0733898-.02 0-.0110394.00897244-.02.02-.02.108504 0 .093311-.0149921.0933898.0933898.00001575.0110551-.00896063.02-.02.02zm-.571425-.0733898c0 .0346969.00738583.0733898-.02.0733898-.0110394 0-.02-.00896063-.02-.02 0-.108398-.0150079-.0933898.0933898-.0933898.0263307 0 .0263307.04 0 .04zm.498035.256776h.0533898c0-.034626-.00737795-.0733937.02-.0733937.0110315 0 .02.00896063.02.02v.0733898c.00001575.0110472-.00896063.02-.02.02h-.0733898c-.0263307 0-.0263189-.0399961 0-.0399961zm-.53802-.0533937c0-.0263307.04-.0263307.04 0v.0533937c.0346378 0 .0733898-.00738189.0733898.0199961 0 .0110394-.00896063.02-.02.02-.108398 0-.0933898.0150079-.0933898-.0933898z"/></g><path d="m1.43977 1.39313h-.336665v.0627087c0 .030252-.0245984.0548465-.0548504.0548465h-.0875512v.175972c0 .0110394-.00896063.0199961-.02.0199961h-.174764c-.0110394 0-.02-.0089685-.02-.0199961v-.175972h-.086248c-.0309606 0-.0561339-.0251811-.0561339-.0561378v-.0614173h-.0974094-.298079-.00001181l-.00050394-.00000787h-.00001181l-.0005-.00001968h-.00001181l-.0005-.0000315h-.00001181l-.00049213-.00004331h-.00001181l-.00049213-.00005906h-.00001181l-.00048425-.00007087h-.00001181l-.00048425-.00007874h-.00001181l-.00047638-.00009449h-.00001181l-.00047638-.0001063h-.00001181l-.0004685-.00011811h-.00001181l-.00046457-.00012992h-.00001181l-.00046063-.00014173h-.00001181l-.00045669-.00014961c-.0078937-.00268504-.0135984-.0101654-.0135984-.0189488v-.805906c0-.00862992.00547244-.0159843.0131378-.0187874l.00044882-.00016142h.00001181l.00045669-.00014961h.00001181l.00046063-.00014173h.00001181l.00046457-.00012992h.00001181l.0004685-.00011811h.00001181l.00047638-.0001063h.00001181l.00047638-.00009449h.00001181l.00048425-.00007874h.00001181l.00048425-.00007087h.00001181l.00049213-.00005906h.00001181l.00049213-.00004331h.00001181l.0005-.0000315h.00001181l.0005-.00001968h.00001181l.00050394-.00000787h.00001181.0743976c.00000394-.0132835.00111811-.0284882.00111811-.043374 0-.0248346.0202087-.0450394.0450394-.0450394.185217-.00000787.18837-.0160354.188063.0884134h.0699764v-.52722c0-.0110394.00896063-.0199961.02-.0199961h.791394c.0110394 0 .02.00895669.02.0199961v.52722h.0222795c.0431535 0 .0782756.0351102.0782756.0782598v.688795c-.00001575.0434764-.035374.0788504-.0788425.0788504zm-.141697-1.20135c-.027378 0-.02-.038752-.02-.0733898-.0346378 0-.0733898.00738189-.0733898-.02 0-.0110394.00897244-.02.02-.02.108504 0 .093311-.0149921.0933898.0933898.00001575.0110551-.00896063.02-.02.02zm-.591425 0c-.0110394 0-.02-.00896063-.02-.02 0-.108398-.0150079-.0933898.0933898-.0933898.0263307 0 .0263307.04 0 .04h-.0533898c0 .0346969.00738583.0733898-.02.0733898zm.591425.223382h-.0733898c-.0263307 0-.0263189-.0399961 0-.0399961h.0533898c0-.034626-.00737795-.0733937.02-.0733937.0110315 0 .02.00896063.02.02v.0733898c.00001575.0110472-.00896063.02-.02.02zm-.51802 0c-.108398 0-.0933898.0150079-.0933898-.0933898 0-.0263307.04-.0263307.04 0v.0533937c.0346378 0 .0733898-.00738189.0733898.0199961 0 .0110394-.00896063.02-.02.02zm.308272-.097878c-.00430709-.0109331-.00675984-.0257165-.00775197-.0424921-.0001063-.00156299-.00019685-.00316142-.00026378-.0047874-.0467835.00858268-.110055.0131417-.154713-.00774016-.00159843.012-.00480709.0329291-.0121496.0479882.0108976.0273504.0296535.0537835.0521654.0685039.00759843.00320866.0158228.00837008.0258976.0109016.00357874.00068504.00719685.00105118.0108543.00105118.0368465 0 .0693465-.0367283.0859606-.0734252zm-.215047-.00026378c-.0113307-.0175433-.064248-.104157-.0397913-.155535.00629134-.0132323.0200827-.0294409.0502087-.0344134.0445551-.0420551.0927244-.0642362.139638-.0642362.128646 0 .199744.161382.103957.265126-.0116181.0279803-.0312874.058063-.0576417.0783976v.0184055h.0627323c.0637795 0 .115669.051874.115669.115654 0 .0021378.00006299.00442913.0001378.00680315h.12987v-.50722h-.751394v.50722h.129917c.0000748-.00237402.0001378-.00466535.0001378-.00680315 0-.0637795.051874-.115654.115654-.115654h.0373898.00048819.0248543c0-.0067126-.00040551-.0132008-.00044488-.0191614-.0283819-.0221654-.0499055-.0559331-.0613819-.0885827zm.2295-.091878c.00800787.00047638.0125551.00413386.0150748.00923622.00228346.00356693.00348031.00792126.00302756.012626l-.00011811.00129528c.00027559.00742913-.00067717.0149488-.00047638.019689.050315-.105575-.073752-.245256-.213472-.107685-.0133819.0131772-.0705709-.00722835-.0210118.0971772.00169291-.0125787.00143307-.023315.00262205-.0317677l.00001575-.0005c.00011417-.00469685.00171654-.00872835.00423622-.0118898.00198031-.00275591.00477953-.00490551.00880315-.00639764.00647638-.00240551.0107205-.00188976.0146772.00027165.00257874.00107874.00501181.00275984.00712992.00511417l.00088976.00093701c.00659449.00562598.0154252.0130591.0328976.0181417.0320748.00902362.0744094.0058622.104854.0011811.0148504-.00242913.026185-.00518898.0330079-.00657874l.00090551-.00024016c.00233858-.0006378.0046811-.00081496.00693701-.00061024zm-.100413.205579c-.00434646 0-.00862598-.00030315-.0128346-.00086614l-.00085039-.00011417-.00139764-.00020866-.00030709-.00004724-.00085433-.00014173-.00085039-.00014567-.00008268-.00001181-.00024016-.00004724-.00222835-.00042913-.0003189-.00006299-.00011024-.00002362c-.00240551-.0005-.00479134-.00109055-.00717323-.00177559 0 .029122-.00094095.0367008-.0256299.0382598.0287874.0207677.0769409.0207795.105744-.00000394-.024626-.00155906-.0255945-.00912205-.0255984-.0381457-.00866142.0024252-.0177559.00376378-.0272677.00376378zm-.0816772 1.07996h-.134752v.155972h.134752zm.0816772-.989307c-.0502244 0-.0904724-.0297953-.105654-.0564449-.0073937-.00009449-.0154724-.00016535-.0243268-.00016535-.044311 0-.0756535.0337008-.0756535.0824567h.411287c0-.0487441-.0313228-.0824567-.0756535-.0824567-.00907874 0-.0173425.0000748-.0248858.00017323-.018878.0333898-.060622.056437-.105114.056437zm-.205646.0258465h.00001181m.266358.845906h-.419539c0 .0383386-.00746457.0775433.0161378.0775433h.106252.174764.107551c.0221732 0 .0148346-.0391417.0148346-.0775433zm-.576941-.100512h-.258091v.0604961h.258091zm-.258091-.04h.258091v-.0376969h-.258091zm0-.0776929h.258091v-.409492h-.258091zm0-.449492h.258091v-.0376969h-.258091zm0-.0776969h.258091v-.0605118h-.182563-.0755276v.0605118zm1.19002.546272h-.0829291c-.0263307 0-.0263189-.0399961 0-.0399961h.0829291c.0263268 0 .0263268.0399961 0 .0399961zm-.785496-.346382c-.0879606 0-.0879606-.133681 0-.133681.0879646 0 .0879646.133681 0 .133681zm0-.093685c-.035311 0-.0353268.0536772 0 .0536772.0353228 0 .0353071-.0536772 0-.0536772zm-.308992-.206717h.153051c0-.0188425.00367717-.0484291-.00477559-.0484291h-.143236c-.00879921 0-.00503937.0290433-.00503937.0484291zm1.09739.32598h-.171665c-.0110394 0-.02-.00897244-.02-.02v-.0967756c0-.0110394.0089685-.02.02-.02h.171665c.0110394 0 .02.00896063.02.02v.0967756c.00001181.0110276-.00896063.02-.02.02zm-.151665-.0400118h.13165v-.0567756l-.13165-.00000394v.0567795zm-.383728.156996c-.0429724 0-.0150315-.100831.0608307-.100831.0263307 0 .0263228.0399961 0 .0399961-.0225118 0-.040815.0183071-.040815.0408189-.00000787.0110472-.00897638.0200157-.0200157.0200157zm.0608268.143028c-.0898976 0-.163028-.0731535-.163028-.163035 0-.0898858.0731378-.163039.163028-.163039.0898898 0 .163039.0731378.163039.163039 0 .0898976-.0731339.163035-.163039.163035zm0-.286079c-.0678465 0-.123028.0551969-.123028.123035 0 .0678425.0551969.123028.123028.123028.0678307 0 .123028-.0551929.123028-.123028 0-.0678307-.0551811-.123035-.123028-.123035zm0 .382256c-.142929 0-.25922-.116291-.25922-.25922 0-.142941.116291-.25922.25922-.25922s.25922.116295.25922.25922c0 .142933-.116287.25922-.25922.25922zm0-.478433c-.120874 0-.21922.0983425-.21922.21922 0 .120874.0983465.219205.21922.219205.120878 0 .219205-.0983346.219205-.219205.00000787-.120894-.0983268-.21922-.219205-.21922zm.532197.539016h-.952457v.0631378h.913622c.0214173 0 .0388346-.0174173.0388346-.0388346v-.0243031zm-.952457-.04h.952457l-.00000787-.559591h-.952449v.559591zm0-.599587h.952449v-.0249055c0-.0210945-.0171535-.0382598-.0382598-.0382598h-.0422638-.170039-.451315-.170055-.0805157v.0631654z" fill="#010103"/><path d="m.486146.765433h-.258091v.409497h.258091z" fill="#fff"/><path d="m.526146 1.24998h.952457l-.00000787-.559591h-.952449v.559591zm.42026-.0205827c-.142929 0-.25922-.116291-.25922-.25922 0-.142941.116291-.25922.25922-.25922s.25922.116295.25922.25922c0 .142933-.116287.25922-.25922.25922zm.388736-.0353858c-.0263307 0-.0263189-.0399961 0-.0399961h.0829291c.0263268 0 .0263268.0399961 0 .0399961zm-.702567-.346382c-.0879606 0-.0879606-.133681 0-.133681.0879646 0 .0879646.133681 0 .133681zm.788398.0255787h-.171665c-.0110394 0-.02-.00897244-.02-.02v-.0967756c0-.0110394.0089685-.02.02-.02h.171665c.0110394 0 .02.00896063.02.02v.0967756c.00001181.0110276-.00896063.02-.02.02z" fill="#fff"/></g></svg>