<svg enable-background="new 0 0 512 512" viewBox="0 0 512 512" xmlns="http://www.w3.org/2000/svg" xmlns:xlink="http://www.w3.org/1999/xlink"><linearGradient id="lg1"><stop offset="0" stop-color="#ffa906"/><stop offset="1" stop-color="#f0e814"/></linearGradient><linearGradient id="SVGID_1_" gradientUnits="userSpaceOnUse" x1="12.023" x2="393.979" xlink:href="#lg1" y1="309.882" y2="309.882"/><linearGradient id="lg2"><stop offset=".0036" stop-color="#e6e7e8"/><stop offset="1" stop-color="#f1f2f2"/></linearGradient><linearGradient id="SVGID_2_" gradientUnits="userSpaceOnUse" x1="143.283" x2="262.719" xlink:href="#lg2" y1="279.656" y2="279.656"/><linearGradient id="SVGID_3_" gradientUnits="userSpaceOnUse" x1="231.804" x2="288.69" xlink:href="#lg2" y1="394.129" y2="394.129"/><linearGradient id="SVGID_4_" gradientUnits="userSpaceOnUse" x1="327.351" x2="371.183" xlink:href="#lg1" y1="216.601" y2="216.601"/><linearGradient id="SVGID_5_" gradientUnits="userSpaceOnUse" x1="466.235" x2="499.977" xlink:href="#lg2" y1="168.571" y2="168.571"/><linearGradient id="SVGID_6_" gradientUnits="userSpaceOnUse" x1="334.822" x2="466.235" y1="168.571" y2="168.571"><stop offset="0" stop-color="#4898f8"/><stop offset="1" stop-color="#8ce1f9"/></linearGradient><linearGradient id="SVGID_7_" gradientUnits="userSpaceOnUse" x1="298.859" x2="338.969" xlink:href="#lg2" y1="249.964" y2="249.964"/><linearGradient id="SVGID_8_" gradientUnits="userSpaceOnUse" x1="263.128" x2="345.044" xlink:href="#lg2" y1="168.571" y2="168.571"/><g id="_x34_0_Video_Marketing"><g><path d="m393.979 201.503v216.759c0 20.654-16.743 37.397-37.397 37.397h-307.162c-20.654 0-37.397-16.743-37.397-37.397v-216.759c0-20.654 16.743-37.397 37.397-37.397h307.161c20.654-.001 37.398 16.743 37.398 37.397z" fill="url(#SVGID_1_)"/><path d="m253.251 294.941-85.181 42.591c-11.388 5.694-24.787-2.587-24.787-15.319v-85.114c0-12.727 13.39-21.008 24.777-15.324l85.181 42.523c12.632 6.306 12.638 24.329.01 30.643z" fill="url(#SVGID_2_)"/><path d="m288.69 394.129c0 15.729-12.758 28.487-28.4 28.487-15.729 0-28.487-12.758-28.487-28.487s12.758-28.487 28.487-28.487c15.643-.001 28.4 12.758 28.4 28.487z" fill="url(#SVGID_3_)"/><path d="m371.183 216.622c0 12.074-9.8 21.875-21.916 21.875-12.074 0-21.916-9.8-21.916-21.875 0-12.116 9.842-21.916 21.916-21.916 12.116 0 21.916 9.8 21.916 21.916z" fill="url(#SVGID_4_)"/><path d="m499.977 71.334v194.473c0 8.188-6.616 14.804-14.804 14.804h-4.135c-8.187 0-14.804-6.616-14.804-14.804v-194.473c0-8.188 6.616-14.804 14.804-14.804h4.135c8.188 0 14.804 6.616 14.804 14.804z" fill="url(#SVGID_5_)"/><path d="m466.235 73.402v190.338c-21.254-34.238-62.564-45.445-95.769-52.557-9.345-2.026-18.029-3.722-25.431-5.5-3.763-.91-7.195-1.819-10.214-2.812v-68.643c3.019-.992 6.451-1.902 10.214-2.812 33.825-8.062 93.95-14.141 121.2-58.014z" fill="url(#SVGID_6_)"/><path d="m338.969 204.561v70.752c0 11.076-8.979 20.055-20.055 20.055-11.076 0-20.055-8.979-20.055-20.055v-70.752z" fill="url(#SVGID_7_)"/><path d="m345.044 131.717v73.708c0 7.143-5.79 12.933-12.933 12.933h-19.197c-27.496 0-49.786-22.29-49.786-49.786 0-27.496 22.29-49.786 49.786-49.786h19.197c7.143-.002 12.933 5.789 12.933 12.931z" fill="url(#SVGID_8_)"/><path d="m170.76 342.92 85.184-42.592c17.056-8.523 17.055-32.893-.009-41.416l-85.184-42.526c-7.226-3.609-15.639-3.232-22.517 1.026-6.869 4.248-10.971 11.607-10.971 19.685v85.118c-.001 17.197 18.107 28.4 33.497 20.705zm-21.454-105.823c0-3.933 1.92-7.372 5.265-9.442 3.345-2.071 7.274-2.251 10.797-.494l85.184 42.526c8.179 4.08 8.233 15.751.009 19.868l-85.184 42.592c-7.434 3.722-16.071-1.687-16.071-9.932z"/><path d="m317.942 388.105h-23.791c-2.854-16.164-16.934-28.487-33.861-28.487-16.973 0-31.088 12.323-33.948 28.487h-138.282c-3.326 0-6.022 2.696-6.022 6.022s2.696 6.022 6.022 6.022h138.282c2.861 16.164 16.975 28.487 33.948 28.487 16.927 0 31.007-12.323 33.861-28.487h23.791c3.326 0 6.022-2.696 6.022-6.022.001-3.327-2.695-6.022-6.022-6.022zm-57.651 28.487c-12.388 0-22.465-10.078-22.465-22.465 0-12.388 10.078-22.465 22.465-22.465 12.336 0 22.376 10.078 22.376 22.465-.001 12.387-10.04 22.465-22.376 22.465z"/><path d="m460.214 71.335v.2c-23.752 36.51-71.391 44.064-110.692 52.716-2.904-6.75-9.609-11.491-17.409-11.491h-19.2c-27.187 0-49.862 19.552-54.786 45.325h-208.707c-23.942.001-43.42 19.478-43.42 43.416v216.761c0 23.942 19.478 43.42 43.42 43.42h307.163c23.942 0 43.42-19.478 43.42-43.42v-193.23c24.529 7.804 46.564 19.563 60.211 40.552v.221c0 28.584 45.786 27.431 45.786 0v-194.47c0-28.622-45.786-27.417-45.786 0zm-115.224 147.914c1.917-1.787 3.491-3.931 4.539-6.373 4.78 1.052 6.646 1.432 15.591 3.331.004.141.039.273.039.415 0 8.741-7.128 15.85-15.893 15.85-1.494 0-2.909-.275-4.277-.666v-12.557zm-32.077-94.445h19.2c3.806 0 6.907 3.1 6.907 6.911v73.709c0 3.811-3.1 6.911-6.907 6.911h-19.2c-24.131 0-43.763-19.633-43.763-43.763 0-24.135 19.633-43.768 43.763-43.768zm20.033 99.492v51.018c0 7.739-6.295 14.034-14.034 14.034-7.735 0-14.03-6.295-14.03-14.034v-51.579c7.533 1.093 9.403.454 27.231.646.285-.001.551-.073.833-.085zm55.012 193.966c0 17.299-14.077 31.376-31.376 31.376h-307.162c-17.299 0-31.376-14.077-31.376-31.376v-216.761c0-17.299 14.077-31.371 31.376-31.371h207.764c.64 23.013 15.247 42.55 35.654 50.455v54.729c0 14.378 11.696 26.078 26.074 26.078s26.078-11.701 26.078-26.078v-31.204c1.4.223 2.814.407 4.277.407 14.655 0 26.688-11.335 27.824-25.681 3.643.843 7.269 1.739 10.867 2.693zm72.256-172.17c-28.29-30-71.774-36.882-109.15-45.217v-64.636c36.845-8.148 80.318-14.638 109.15-45.205zm33.742 19.713c0 11.909-21.698 11.905-21.698 0 0-66.803 0-120.685 0-194.47 0-11.908 21.698-11.904 21.698 0z"/></g></g><g id="Layer_1"/></svg>